<svg width="2837" height="1224" viewBox="0 0 2837 1224" fill="none" xmlns="http://www.w3.org/2000/svg">
<path d="M1234 730.899V648.796H1413V568.696H1234V493.101H1423V413H1140V811H1428V730.899H1234Z" fill="white"/>
<path fill-rule="evenodd" clip-rule="evenodd" d="M1597.48 539.541C1586.46 529.646 1574.06 520.875 1560 513.737V811H1471V494V436V414C1547.21 414 1606.39 440.018 1650.93 480.022C1676.22 502.73 1696.19 529.387 1712 557.172V414H1801V811H1736C1696 811 1696 811.013 1696 811.025V810.977C1696 810.885 1696 810.71 1695.99 810.455C1695.99 809.944 1695.98 809.112 1695.95 807.98C1695.89 805.716 1695.78 802.258 1695.54 797.778C1695.06 788.807 1694.1 775.804 1692.16 760.13C1688.26 728.574 1680.51 687.21 1665.37 646.418C1650.17 605.447 1628.31 567.232 1597.48 539.541Z" fill="white"/>
<path d="M526.5 816C632 816 702 752.422 702 656.805V567.195C702 471.578 632 408 526.5 408C421 408 351 471.578 351 567.195V656.805C351 752.422 421 816 526.5 816ZM526.5 733.399C477.5 733.399 445 700.859 445 651.799V572.201C445 523.141 477.5 490.601 526.5 490.601C575.5 490.601 608 523.141 608 572.201V651.799C608 700.859 575.5 733.399 526.5 733.399Z" fill="white"/>
<path d="M1844 811V731.017H1933.98V811H1844Z" fill="white"/>
<path d="M2258.45 811L2238.45 744.013H2092.98L2072.98 811H1976.5L2100.48 413.58H2230.95L2354.93 811H2258.45ZM2116.98 664.03H2214.46L2165.97 501.062L2116.98 664.03Z" fill="white"/>
<path d="M2391.93 811V413.58H2485.91V811H2391.93Z" fill="white"/>
<g clip-path="url(#clip0_1467_2328)">
<path fill-rule="evenodd" clip-rule="evenodd" d="M1147 732H1146.27L1145.33 731.991H1144.39L1143.46 731.981H1142.43L1141.49 731.977H1140.65L1139.71 731.967H1138.78L1137.84 731.958H1136.91L1136.07 731.949L1134.94 731.944H1134.1L1132.22 731.925H1131.26L1128.45 731.901H1127.52L1124.91 731.88L1122.03 731.851L1121.1 731.846L1118.29 731.818L1117.36 731.813L1116.72 731.807L1115.68 731.786L1114.55 731.78L1113.91 731.774L1112.93 731.754L1111.05 731.74L1110.07 731.72L1109.08 731.715L1107.31 731.684L1106.39 731.675L1103.68 731.625L1102.59 731.609L1101.84 731.601L1101.01 731.58L1099.95 731.564L1097.34 731.516L1096.44 731.494L1095.49 731.475L1094.46 731.449L1093.62 731.436L1092.89 731.414L1090.08 731.344L1089.15 731.315L1087.37 731.271L1086.44 731.238L1085.51 731.215L1083.73 731.152L1082.06 731.102L1081.22 731.064L1079.35 730.999L1078.42 730.956L1077.47 730.923L1076.65 730.886L1075.71 730.848L1075.07 730.819L1074.03 730.762L1073.1 730.725L1072.17 730.673L1071.22 730.635L1070.69 730.606L1069.76 730.55L1068.82 730.498L1066.22 730.341L1065.28 730.28L1064.44 730.229L1062.01 730.058L1059.44 729.857L1059.35 729.85L1058.59 729.789L1056.92 729.646L1056.19 729.58L1053.67 729.34L1051.24 729.084L1049.73 728.909L1048.14 728.715L1045.68 728.393L1045.13 728.316L1044.3 728.191L1043.37 728.055L1042.71 727.956L1042.06 727.851L1040.51 727.594L1039.88 727.484L1038.41 727.215L1037.61 727.059L1036.74 726.894L1036.22 726.79L1035.62 726.661L1034.18 726.348L1033.7 726.234L1031.45 725.689L1031.04 725.579L1030.19 725.35L1029.56 725.177L1028.32 724.822L1027.09 724.445L1026.57 724.275L1025.93 724.062L1025.35 723.866L1024.72 723.642L1024.18 723.447L1023.69 723.265L1023.06 723.021L1022.98 722.99L1022.35 722.741L1021.85 722.54L1021.49 722.389L1020.95 722.152L1020.17 721.802L1019.75 721.615L1018.7 721.108L1018.28 720.899L1017.65 720.573L1017.07 720.263L1016.68 720.055L1015.56 719.416L1015.16 719.181L1014.64 718.859L1014.13 718.536L1013.57 718.177L1013.1 717.865L1012.54 717.477L1012.01 717.111L1011.66 716.854L1011.11 716.446L1011.01 716.367L1010.41 715.908L1009.91 715.52L1009.52 715.209L1009.05 714.812L1008.39 714.252L1007.84 713.777L1007.35 713.334L1006.74 712.772L1006.19 712.251L1005.66 711.735L1005.06 711.14L1004.52 710.592L1003.9 709.942L1003.24 709.238L1002.68 708.618L1002.1 707.966L1001.45 707.208L1000.8 706.447L1000.2 705.723L999.544 704.904L998.914 704.106L998.268 703.26L997.573 702.333L996.848 701.344L996.152 700.381L995.497 699.448L994.801 698.433L994.075 697.351L993.368 696.278L992.675 695.196L991.903 693.966L991.844 693.872L991.109 692.692L990.413 691.541L989.629 690.214L988.864 688.908L988.113 687.585L987.332 686.191L986.545 684.752L985.719 683.225L984.94 681.76L984.144 680.227L983.325 678.629L982.505 677L981.691 675.359L980.875 673.682L980.047 671.953L979.209 670.176L978.356 668.341L978.317 668.258L977.512 666.516L975.815 662.719L974.955 660.761L974.082 658.756L973.229 656.771L971.474 652.612L970.642 650.595L970.599 650.491L968.821 646.143L967.968 644.019L966.163 639.46L964.369 634.867L962.584 630.219L962.547 630.122L960.77 625.441L960.737 625.353L958.937 620.556L957.112 615.658L957.072 615.549L956.167 613.095L956.123 612.976L956.138 612.935L956.196 612.778L959.817 603.055L959.854 602.956L960.719 600.661L960.757 600.561L962.563 595.813L963.453 593.484L963.496 593.371L964.351 591.154L964.389 591.056L965.239 588.869L965.288 588.745L966.176 586.483L966.179 586.475L966.183 586.466L967.068 584.207L967.904 582.115L967.956 581.986L968.841 579.795L970.611 575.433L971.425 573.477L971.483 573.339L973.233 569.182L974.049 567.283L974.112 567.139L974.944 565.224L975.78 563.325L975.841 563.187L976.671 561.325L977.492 559.505L978.318 557.718L979.205 555.808L979.254 555.703L980.033 554.041L980.822 552.407L980.866 552.317L981.682 550.639L982.479 549.037L982.54 548.914L983.338 547.324L984.129 545.777L984.93 544.244L984.99 544.129L985.776 542.635L986.539 541.22L987.292 539.848L988.053 538.497L988.124 538.371L988.867 537.064L989.621 535.774L990.397 534.463L991.168 533.192L991.904 531.993L992.591 530.906L992.686 530.757L993.318 529.769L994.075 528.634L994.812 527.521L995.441 526.613L996.208 525.521L996.947 524.486L997.565 523.639L998.226 522.763L998.824 521.981L999.535 521.092L1000.3 520.129L1000.81 519.507L1001.39 518.826L1001.98 518.15L1002.73 517.304L1002.74 517.294L1003.28 516.694L1003.84 516.108L1004.5 515.41L1005.11 514.788L1005.12 514.777L1005.72 514.177L1006.21 513.702L1006.86 513.078L1007.17 512.79L1008.37 511.745L1008.9 511.295L1009.04 511.177L1009.56 510.742L1009.91 510.463L1010.38 510.095L1010.53 509.98L1011.06 509.576L1011.5 509.246L1012.07 508.839L1012.64 508.433L1013.01 508.181L1013.46 507.884L1014.1 507.471L1014.69 507.1L1015.16 506.809L1015.6 506.545L1016.11 506.255L1016.74 505.901L1017.2 505.646L1017.63 505.421L1018.14 505.156L1018.6 504.929L1019.85 504.322L1020.24 504.145L1020.77 503.913L1021.33 503.669L1021.99 503.394L1022.39 503.23L1023.67 502.734L1024.26 502.512L1024.65 502.369L1025.14 502.201L1025.22 502.174L1025.97 501.918L1026.57 501.717L1027.04 501.565L1027.78 501.339L1028.51 501.113L1028.93 500.987L1029.44 500.845L1030.93 500.44L1031.51 500.29L1031.68 500.244L1032.09 500.141L1032.84 499.964L1033.48 499.805L1034.05 499.68L1034.81 499.509L1036.2 499.216L1037.75 498.904L1038.93 498.675L1039.75 498.54L1040.69 498.365L1042.05 498.14L1042.62 498.048L1043.37 497.94L1044.93 497.705L1045.89 497.579L1046.82 497.44L1047.2 497.39L1048.7 497.206L1049.68 497.097L1050.61 496.981L1051.16 496.92L1052 496.831L1052.92 496.734L1053.66 496.656L1054.51 496.576L1055.44 496.481L1056.12 496.417L1057.7 496.278L1058.59 496.207L1059.46 496.132L1061.05 496.009L1063.9 495.809L1064.65 495.749L1065.37 495.705L1066.31 495.64L1066.75 495.613L1067.89 495.561L1068.99 495.484L1071.33 495.358L1071.46 495.352L1073.1 495.27L1074.97 495.185L1075.71 495.148L1076.54 495.119L1077.68 495.068L1077.68 495.067L1078.51 495.03L1078.62 495.025L1079.93 494.969L1080.92 494.949L1082.26 494.889L1082.84 494.866L1084.72 494.814L1085.64 494.777L1088.35 494.704L1089.14 494.676L1090.08 494.658L1091.12 494.621L1091.65 494.608L1092.64 494.593L1094.51 494.541L1095.5 494.526L1096.48 494.497L1098.25 494.465L1099.17 494.442L1101.88 494.397L1102.98 494.375L1103.66 494.358L1105.65 494.343L1106.58 494.315L1108.25 494.302L1109.34 494.28L1110.07 494.269L1111 494.26L1111.94 494.246L1112.78 494.238H1112.78L1113.71 494.228H1113.71L1114.75 494.218L1115.68 494.204L1116.52 494.195H1116.52L1117.55 494.185L1118.49 494.171L1120.16 494.154L1121.1 494.149L1121.93 494.141H1122.87L1124.1 494.128L1124.84 494.117H1125.67L1126.81 494.106H1126.81L1127.54 494.099H1128.48L1129.42 494.089H1130.46L1131.59 494.072L1132.22 494.066H1133.16L1134.2 494.055L1134.93 494.052H1135.97L1138.04 494.031H1138.05L1138.78 494.023H1141.49L1142.42 494.019H1143.46L1144.59 494.007H1144.6L1145.33 494H1147V414H1144.93L1143.79 414.011L1143.79 414.011L1143.06 414.019H1142.22L1141.28 414.023H1138.37L1137.24 414.035H1137.24L1135.57 414.052H1134.73L1133.6 414.057L1132.76 414.066H1131.82L1130.58 414.078L1129.85 414.089H1129.02L1128.08 414.099H1127.14L1126.01 414.11H1126.01L1125.27 414.117H1124.24L1123.1 414.134L1122.47 414.141H1121.53L1120.49 414.151L1119.56 414.156L1117.49 414.177L1116.55 414.191L1115.72 414.199L1115.72 414.199L1114.68 414.21L1113.75 414.224L1112.91 414.232L1112.9 414.232L1111.97 414.241L1111.97 414.242L1110.94 414.252L1110 414.266L1109.06 414.275L1107.93 414.293L1107.15 414.308L1105.06 414.324L1104.13 414.352L1102.36 414.365L1101.17 414.395L1100.47 414.409L1100.34 414.412L1097.5 414.459L1096.54 414.483L1094.57 414.518L1093.69 414.544L1092.8 414.558L1090.93 414.609L1090.05 414.623L1088.71 414.656L1087.88 414.686L1086.93 414.704L1085.87 414.742L1082.95 414.82L1082.01 414.858L1080.14 414.91L1078.84 414.961L1078.31 414.986L1077.43 415.003L1075.05 415.105L1074.07 415.149L1074.07 415.149L1073.33 415.182L1072.29 415.219L1071.16 415.276L1069.29 415.36L1067.25 415.462L1064.03 415.634L1063.27 415.689L1062.54 415.721L1061.11 415.807L1060.16 415.874L1059.03 415.942L1057.9 416.033L1055.14 416.227L1052.97 416.395L1052.07 416.472L1051.89 416.488L1051 416.559L1048.83 416.749L1047.64 416.862L1046.71 416.957L1045.68 417.054L1044.53 417.175L1042.57 417.382L1041.24 417.528L1040.3 417.646L1039.42 417.744L1037.17 418.021L1035.67 418.215L1034.73 418.357L1033.82 418.476L1031.71 418.794L1031.56 418.816L1030.51 418.969L1029.21 419.178L1026.82 419.573L1025.9 419.745L1024.84 419.919L1022.28 420.414L1020.09 420.854L1018.96 421.091L1018.95 421.093L1017.74 421.35L1016.72 421.58L1016.53 421.621L1015.32 421.889L1014.09 422.19L1012.97 422.455L1011.59 422.808L1010.39 423.123L1009.27 423.425L1009.25 423.43L1008.14 423.733L1006.77 424.116L1005.32 424.545L1004.21 424.891L1003.05 425.247L1001.64 425.697L1000.36 426.127L999.284 426.494L997.952 426.952L996.466 427.494L995.18 427.977L992.723 428.928L991.249 429.534L990.032 430.046L988.737 430.602L987.38 431.205L985.895 431.883L983.414 433.08L981.996 433.783L980.636 434.486L979.192 435.246L977.785 436.025L976.541 436.723L975.173 437.512L973.737 438.366L972.348 439.221L971.061 440.035L969.824 440.832L968.404 441.765L966.909 442.792L965.609 443.71L964.297 444.655L962.868 445.715L961.61 446.681L960.279 447.711L958.751 448.945L957.468 450.019L956.204 451.088L953.652 453.321L952.096 454.761L950.875 455.924L949.499 457.25L946.977 459.802L945.795 461.052L945.73 461.121L944.446 462.473L943.126 463.948L942.009 465.196L940.724 466.672L939.429 468.197L938.063 469.857L936.964 471.244L935.804 472.692L934.52 474.373L933.31 475.975L932.068 477.681L930.927 479.277L929.82 480.853L928.576 482.65L927.486 484.295L927.42 484.395L926.33 486.028L925.136 487.896L924.011 489.674L922.868 491.535L921.765 493.356L920.666 495.212L919.555 497.114L918.46 499.041L917.383 500.952L916.264 502.989L915.16 505.039L914.103 507.048L913.5 508.202L912.897 507.048L911.84 505.039L910.736 502.989L909.617 500.952L908.54 499.041L907.445 497.114L906.334 495.212L905.235 493.356L904.132 491.535L902.989 489.674L901.864 487.896L900.67 486.028L899.58 484.395L899.514 484.295L898.424 482.65L897.18 480.853L896.073 479.277L894.932 477.681L893.69 475.975L892.48 474.373L891.196 472.692L890.036 471.244L888.937 469.857L887.571 468.197L886.276 466.672L884.991 465.196L883.874 463.948L882.554 462.473L881.27 461.121L881.205 461.052L880.023 459.802L877.501 457.25L876.125 455.924L874.904 454.761L873.348 453.321L870.796 451.088L869.532 450.019L868.249 448.945L866.721 447.711L865.39 446.681L864.132 445.715L862.703 444.655L861.391 443.71L860.091 442.792L858.596 441.765L857.176 440.832L855.939 440.035L854.652 439.221L853.263 438.366L851.827 437.512L850.459 436.723L849.215 436.025L847.808 435.246L846.364 434.486L845.004 433.783L843.586 433.08L841.105 431.883L839.62 431.205L838.263 430.602L836.968 430.046L835.751 429.534L834.277 428.928L831.82 427.977L830.534 427.494L829.048 426.952L827.716 426.494L826.638 426.127L825.356 425.697L823.953 425.247L822.795 424.891L821.679 424.545L820.23 424.116L818.865 423.733L817.75 423.43L817.733 423.425L816.615 423.123L815.408 422.808L814.028 422.455L812.909 422.19L811.683 421.889L810.466 421.621L810.283 421.58L809.263 421.35L808.05 421.093L808.037 421.091L806.912 420.854L804.723 420.414L802.161 419.919L801.102 419.745L800.181 419.573L797.794 419.178L796.486 418.969L795.441 418.816L795.293 418.794L793.18 418.476L792.267 418.357L791.33 418.215L789.834 418.021L787.584 417.744L786.698 417.646L785.755 417.528L784.426 417.382L782.468 417.175L781.323 417.054L780.295 416.957L779.36 416.862L778.169 416.749L776.004 416.559L775.115 416.488L774.927 416.472L774.027 416.395L771.862 416.227L769.097 416.033L767.971 415.942L766.837 415.874L765.89 415.807L764.458 415.721L763.731 415.689L762.966 415.634L759.748 415.462L757.709 415.36L755.839 415.276L754.706 415.219L753.666 415.182L752.934 415.149L752.929 415.149L751.948 415.105L749.573 415.003L748.689 414.986L748.155 414.961L746.865 414.91L744.993 414.858L744.047 414.82L741.132 414.742L740.069 414.704L739.123 414.686L738.29 414.656L736.953 414.623L736.068 414.609L734.196 414.558L733.311 414.544L732.428 414.518L730.455 414.483L729.504 414.459L726.662 414.412L726.526 414.409L725.828 414.395L724.639 414.365L722.868 414.352L721.937 414.324L719.855 414.308L719.071 414.293L717.941 414.275L717.001 414.266L716.062 414.252L715.027 414.242L715.026 414.241L714.097 414.232L714.094 414.232L713.253 414.224L712.32 414.21L711.284 414.199L711.283 414.199L710.445 414.191L709.513 414.177L707.44 414.156L706.508 414.151L705.469 414.141H704.535L703.898 414.134L702.763 414.117H701.726L700.991 414.11H700.99L699.857 414.099H698.92L697.982 414.089H697.146L696.416 414.078L695.176 414.066H694.237L693.4 414.057L692.269 414.052H691.43L689.76 414.035H689.758L688.628 414.023H685.718L684.781 414.019H683.942L683.209 414.011L683.207 414.011L682.074 414H680V494H681.67L682.404 494.007H682.407L683.543 494.019H684.58L685.512 494.023H688.224L688.952 494.031H688.955L691.029 494.052H692.067L692.796 494.055L693.835 494.066H694.775L695.41 494.072L696.539 494.089H697.584L698.519 494.099H699.456L700.186 494.106H700.188L701.325 494.117H702.161L702.897 494.128L704.131 494.141H705.068L705.903 494.149L706.841 494.154L708.51 494.171L709.447 494.185L710.479 494.195H710.48L711.318 494.204L712.254 494.218L713.292 494.228H713.294L714.222 494.238H714.224L715.06 494.246L716 494.26L716.93 494.269L717.665 494.28L718.754 494.302L720.424 494.315L721.355 494.343L723.335 494.358L724.02 494.375L725.121 494.397L727.829 494.442L728.746 494.465L730.52 494.497L731.503 494.526L732.491 494.541L734.364 494.593L735.349 494.608L735.884 494.621L736.922 494.658L737.857 494.676L738.652 494.704L741.365 494.777L742.279 494.814L744.161 494.866L744.742 494.889L746.077 494.949L747.066 494.969L748.384 495.025L748.489 495.03L749.318 495.067L749.322 495.068L750.458 495.119L751.292 495.148L752.026 495.185L753.902 495.27L755.541 495.352L755.666 495.358L758.011 495.484L759.108 495.561L760.253 495.613L760.694 495.64L761.627 495.705L762.353 495.749L763.1 495.809L765.95 496.009L767.536 496.132L768.414 496.207L769.298 496.278L770.879 496.417L771.559 496.481L772.495 496.576L773.341 496.656L774.078 496.734L775 496.831L775.845 496.92L776.394 496.981L777.323 497.097L778.304 497.206L779.799 497.39L780.184 497.44L781.108 497.579L782.069 497.705L783.633 497.94L784.375 498.048L784.947 498.14L786.306 498.365L787.246 498.54L788.067 498.675L789.248 498.904L790.802 499.216L792.191 499.509L792.951 499.68L793.516 499.805L794.162 499.964L794.912 500.141L795.315 500.244L795.495 500.29L796.069 500.44L797.562 500.845L798.068 500.987L798.493 501.113L799.221 501.339L799.958 501.565L800.43 501.717L801.031 501.918L801.783 502.174L801.86 502.201L802.35 502.369L802.742 502.512L803.332 502.734L804.614 503.23L805.013 503.394L805.667 503.669L806.235 503.913L806.757 504.145L807.145 504.322L808.403 504.929L808.86 505.156L809.374 505.421L809.801 505.646L810.262 505.901L810.892 506.255L811.395 506.545L811.839 506.809L812.31 507.1L812.898 507.471L813.54 507.884L813.992 508.181L814.359 508.433L814.932 508.839L815.499 509.246L815.943 509.576L816.471 509.98L816.62 510.095L817.093 510.463L817.439 510.742L817.96 511.177L818.099 511.295L818.632 511.745L819.826 512.79L820.136 513.078L820.792 513.702L821.285 514.177L821.877 514.777L821.888 514.788L822.504 515.41L823.163 516.108L823.719 516.694L824.257 517.294L824.265 517.304L825.023 518.15L825.611 518.826L826.19 519.507L826.702 520.129L827.465 521.092L828.176 521.981L828.774 522.763L829.435 523.639L830.053 524.486L830.792 525.521L831.559 526.613L832.188 527.521L832.925 528.634L833.682 529.769L834.314 530.757L834.409 530.906L835.096 531.993L835.832 533.192L836.603 534.463L837.379 535.774L838.133 537.064L838.876 538.371L838.947 538.497L839.708 539.848L840.461 541.22L841.224 542.635L842.01 544.129L842.07 544.244L842.871 545.777L843.662 547.324L844.46 548.914L844.521 549.037L845.318 550.639L846.134 552.317L846.178 552.407L846.967 554.041L847.746 555.703L847.795 555.808L848.682 557.718L849.508 559.505L850.329 561.325L851.159 563.187L851.22 563.325L852.056 565.224L852.888 567.139L852.951 567.283L853.767 569.182L855.517 573.339L855.575 573.477L856.389 575.433L858.159 579.795L859.044 581.986L859.096 582.115L859.932 584.207L860.817 586.466L860.821 586.475L860.824 586.483L861.712 588.745L861.761 588.869L862.611 591.056L862.649 591.154L863.504 593.371L863.547 593.484L864.437 595.813L866.243 600.561L866.281 600.661L867.146 602.956L867.183 603.055L870.804 612.778L870.862 612.935L870.877 612.975L870.833 613.095L869.928 615.549L869.888 615.658L868.063 620.556L866.263 625.353L866.23 625.441L864.453 630.122L864.416 630.219L862.631 634.867L860.837 639.46L859.032 644.019L858.179 646.143L856.401 650.491L856.358 650.595L855.526 652.612L853.771 656.771L852.918 658.756L852.045 660.761L851.185 662.719L849.488 666.516L848.683 668.258L848.644 668.341L847.791 670.176L846.953 671.953L846.125 673.682L845.309 675.359L844.495 677L843.675 678.629L842.856 680.227L842.06 681.76L841.281 683.225L840.455 684.752L839.668 686.191L838.887 687.585L838.136 688.908L837.371 690.214L836.587 691.541L835.891 692.692L835.156 693.872L835.097 693.966L834.325 695.196L833.632 696.278L832.925 697.351L832.199 698.433L831.503 699.448L830.848 700.381L830.152 701.344L829.427 702.333L828.732 703.26L828.086 704.106L827.456 704.904L826.797 705.723L826.2 706.447L825.554 707.208L824.9 707.966L824.323 708.618L823.757 709.238L823.098 709.942L822.481 710.592L821.943 711.14L821.345 711.735L820.814 712.251L820.26 712.772L819.651 713.334L819.158 713.777L818.611 714.252L817.954 714.812L817.481 715.209L817.093 715.52L816.595 715.908L815.989 716.367L815.885 716.446L815.342 716.854L814.987 717.111L814.463 717.477L813.898 717.865L813.427 718.177L812.872 718.536L812.361 718.859L811.835 719.181L811.443 719.416L810.319 720.055L809.935 720.263L809.349 720.573L808.717 720.899L808.305 721.108L807.248 721.615L806.833 721.802L806.046 722.152L805.509 722.389L805.148 722.54L804.652 722.741L804.015 722.99L803.936 723.021L803.31 723.265L802.823 723.447L802.283 723.642L801.646 723.866L801.074 724.062L800.43 724.275L799.907 724.445L798.677 724.822L797.444 725.177L796.806 725.35L795.962 725.579L795.549 725.689L793.303 726.234L792.819 726.348L791.383 726.661L790.775 726.79L790.255 726.894L789.386 727.059L788.592 727.215L787.121 727.484L786.494 727.594L784.944 727.851L784.287 727.956L783.632 728.055L782.698 728.191L781.868 728.316L781.321 728.393L778.857 728.715L777.27 728.909L775.755 729.084L773.328 729.34L770.813 729.58L770.082 729.646L768.405 729.789L767.652 729.85L767.561 729.857L764.994 730.058L762.562 730.229L761.719 730.28L760.785 730.341L758.176 730.498L757.242 730.55L756.309 730.606L755.775 730.635L754.828 730.673L753.895 730.725L752.966 730.762L751.932 730.819L751.287 730.848L750.354 730.886L749.525 730.923L748.579 730.956L747.648 730.999L745.778 731.064L744.936 731.102L743.272 731.152L741.495 731.215L740.562 731.238L739.627 731.271L737.852 731.315L736.919 731.344L734.109 731.414L733.376 731.436L732.542 731.449L731.506 731.475L730.563 731.494L729.665 731.516L727.054 731.564L725.99 731.58L725.156 731.601L724.415 731.609L723.317 731.625L720.606 731.675L719.692 731.684L717.917 731.715L716.929 731.72L715.945 731.74L714.073 731.754L713.086 731.774L712.453 731.78L711.317 731.786L710.28 731.807L709.644 731.813L708.711 731.818L705.898 731.846L704.967 731.851L702.093 731.88L699.483 731.901H698.552L695.739 731.925H694.775L692.899 731.944H692.062L690.928 731.949L690.093 731.958H689.156L688.22 731.967H687.286L686.349 731.977H685.513L684.574 731.981H683.543L682.606 731.991H681.669L680.735 732H680V812H681.138L682.071 811.991H683.007L683.944 811.981H684.774L685.713 811.977H686.75L687.687 811.967H688.62L689.557 811.958H690.493L691.531 811.947L692.263 811.944H693.3L695.176 811.925H696.073L698.886 811.901H699.816L702.831 811.876L705.57 811.849L706.5 811.844L709.312 811.816L710.246 811.811L711.483 811.799L712.32 811.782L713.056 811.778L714.291 811.766L715.176 811.748L717.051 811.734L717.934 811.716L718.819 811.712L720.797 811.677L721.744 811.668L724.657 811.614L725.421 811.603L726.559 811.591L727.598 811.565L728.394 811.553L731.409 811.498L732.371 811.473L733.308 811.455L734.146 811.434L735.185 811.418L736.319 811.384L739.128 811.313L740.062 811.285L742.033 811.236L742.971 811.203L743.905 811.179L745.874 811.11L747.95 811.048L748.982 811.001L750.864 810.935L751.793 810.893L752.727 810.86L753.771 810.813L754.699 810.776L755.933 810.72L756.773 810.674L757.716 810.636L758.644 810.584L759.576 810.547L760.915 810.473L761.855 810.417L762.789 810.365L765.799 810.184L766.732 810.123L767.762 810.061L770.943 809.837L773.956 809.601L775.018 809.515L777.094 809.339L778.223 809.236L781.334 808.94L784.52 808.604L785.665 808.472L786.745 808.347L788.905 808.082L792.054 807.671L793.38 807.484L794.423 807.327L795.356 807.191L796.574 807.008L797.79 806.813L798.847 806.639L799.981 806.45L801.226 806.231L803.508 805.814L804.575 805.604L805.585 805.412L806.938 805.141L808.19 804.876L810.507 804.371L811.897 804.044L815.263 803.227L816.723 802.839L818.982 802.226L821.495 801.502L824.005 800.733L825.356 800.292L826.591 799.885L827.879 799.443L829.115 799.009L830.448 798.528L831.841 798.006L833.036 797.541L834.233 797.073L835.615 796.513L837.116 795.885L838.451 795.295L839.544 794.809L841.002 794.152L843.685 792.864L845.146 792.125L846.388 791.483L847.668 790.807L849.157 790L851.78 788.508L853.255 787.624L854.602 786.801L855.964 785.94L857.282 785.088L858.678 784.16L859.985 783.262L861.335 782.321L862.86 781.217L864.125 780.265L865.34 779.346L866.722 778.268L868.207 777.076L869.594 775.914L870.81 774.877L872.143 773.718L873.511 772.49L874.775 771.323L876.1 770.078L877.442 768.772L878.706 767.516L880.047 766.149L881.303 764.826L882.517 763.53L883.818 762.103L885.114 760.64L886.332 759.229L887.56 757.783L888.83 756.243L890.044 754.733L891.287 753.156L892.515 751.549L893.686 749.988L894.834 748.422L896.011 746.793L897.235 745.049L898.401 743.349L899.547 741.641L900.72 739.86L901.887 738.039L902.959 736.329L904.074 734.541L905.252 732.592L906.327 730.774L907.442 728.868L908.564 726.894L909.656 724.944L910.73 722.982L911.783 721.034L912.877 718.978L913.5 717.778L914.123 718.978L915.217 721.034L916.27 722.982L917.344 724.944L918.436 726.894L919.558 728.868L920.673 730.774L921.748 732.592L922.926 734.541L924.041 736.329L925.113 738.039L926.28 739.86L927.453 741.641L928.599 743.349L929.765 745.049L930.989 746.793L932.166 748.422L933.314 749.988L934.485 751.549L935.713 753.156L936.956 754.733L938.17 756.243L939.44 757.783L940.668 759.229L941.886 760.64L943.182 762.103L944.483 763.53L945.697 764.826L946.953 766.149L948.294 767.516L949.558 768.772L950.9 770.078L952.225 771.323L953.489 772.49L954.857 773.718L956.19 774.877L957.406 775.914L958.793 777.076L960.278 778.268L961.66 779.346L962.875 780.265L964.14 781.217L965.665 782.321L967.015 783.262L968.322 784.16L969.718 785.088L971.036 785.94L972.398 786.801L973.745 787.624L975.22 788.508L977.843 790L979.332 790.807L980.612 791.483L981.854 792.125L983.315 792.864L985.998 794.152L987.456 794.809L988.549 795.295L989.884 795.885L991.385 796.513L992.767 797.073L993.964 797.541L995.159 798.006L996.552 798.528L997.885 799.009L999.121 799.443L1000.41 799.885L1001.64 800.292L1002.99 800.733L1005.51 801.502L1008.02 802.226L1010.28 802.839L1011.74 803.227L1015.1 804.044L1016.49 804.371L1018.81 804.876L1020.06 805.141L1021.41 805.412L1022.42 805.604L1023.49 805.814L1025.77 806.231L1027.02 806.45L1028.15 806.639L1029.21 806.813L1030.43 807.008L1031.64 807.191L1032.58 807.327L1033.62 807.484L1034.95 807.671L1038.09 808.082L1040.26 808.347L1041.34 808.472L1042.48 808.604L1045.67 808.94L1048.78 809.236L1049.91 809.339L1051.98 809.515L1053.04 809.601L1056.06 809.837L1059.24 810.061L1060.27 810.123L1061.2 810.184L1064.21 810.365L1065.15 810.417L1066.09 810.473L1067.42 810.547L1068.36 810.584L1069.28 810.636L1070.23 810.674L1071.07 810.72L1072.3 810.776L1073.23 810.813L1074.27 810.86L1075.21 810.893L1076.14 810.935L1078.02 811.001L1079.05 811.048L1081.13 811.11L1083.09 811.179L1084.03 811.203L1084.97 811.236L1086.94 811.285L1087.87 811.313L1090.68 811.384L1091.82 811.418L1092.85 811.434L1093.69 811.455L1094.63 811.473L1095.59 811.498L1098.61 811.553L1099.4 811.565L1100.44 811.591L1101.58 811.603L1102.34 811.614L1105.26 811.668L1106.2 811.677L1108.18 811.712L1109.07 811.716L1109.95 811.734L1111.82 811.748L1112.71 811.766L1113.94 811.778L1114.68 811.782L1115.52 811.799L1116.75 811.811L1117.69 811.816L1120.5 811.844L1121.43 811.849L1124.17 811.876L1127.18 811.901H1128.11L1130.93 811.925H1131.82L1133.7 811.944H1134.74L1135.47 811.947L1136.51 811.958H1137.44L1138.38 811.967H1139.31L1140.25 811.977H1141.29L1142.23 811.981H1143.06L1143.99 811.991H1144.93L1145.86 812H1147V732Z" fill="white"/>
</g>
<defs>
<clipPath id="clip0_1467_2328">
<rect width="369" height="399" fill="white" transform="translate(729 413)"/>
</clipPath>
</defs>
</svg>
