<svg width="2135" height="408" viewBox="0 0 2135 408" fill="none" xmlns="http://www.w3.org/2000/svg">
<path d="M883 322.899V240.796H1062V160.696H883V85.1006H1072V5H789V403H1077V322.899H883Z" fill="#161616"/>
<path fill-rule="evenodd" clip-rule="evenodd" d="M1246.48 131.541C1235.46 121.646 1223.06 112.875 1209 105.737V403H1120V86V28V6C1196.21 6 1255.39 32.0185 1299.93 72.0216C1325.22 94.7305 1345.19 121.387 1361 149.172V6H1450V403H1385C1345 403 1345 403.013 1345 403.025V402.977C1345 402.885 1345 402.71 1344.99 402.455C1344.99 401.944 1344.98 401.112 1344.95 399.98C1344.89 397.716 1344.78 394.258 1344.54 389.778C1344.06 380.807 1343.1 367.804 1341.16 352.13C1337.26 320.574 1329.51 279.21 1314.37 238.418C1299.17 197.447 1277.31 159.232 1246.48 131.541Z" fill="#161616"/>
<path d="M175.5 408C281 408 351 344.422 351 248.805V159.195C351 63.5779 281 0 175.5 0C70 0 0 63.5779 0 159.195V248.805C0 344.422 70 408 175.5 408ZM175.5 325.399C126.5 325.399 94 292.859 94 243.799V164.201C94 115.141 126.5 82.6012 175.5 82.6012C224.5 82.6012 257 115.141 257 164.201V243.799C257 292.859 224.5 325.399 175.5 325.399Z" fill="#161616"/>
<path d="M1493 403V323.017H1582.98V403H1493Z" fill="#161616"/>
<path d="M1907.45 403L1887.45 336.013H1741.98L1721.98 403H1625.5L1749.48 5.58008H1879.95L2003.93 403H1907.45ZM1765.98 256.03H1863.46L1814.97 93.0624L1765.98 256.03Z" fill="#161616"/>
<path d="M2040.93 403V5.58008H2134.91V403H2040.93Z" fill="#161616"/>
<g clip-path="url(#clip0_1467_2295)">
<path fill-rule="evenodd" clip-rule="evenodd" d="M796 324H795.265L794.331 323.991H793.394L792.457 323.981H791.426L790.487 323.977H789.651L788.714 323.967H787.78L786.844 323.958H785.907L785.072 323.949L783.938 323.944H783.101L781.225 323.925H780.261L777.448 323.901H776.517L773.907 323.88L771.033 323.851L770.102 323.846L767.289 323.818L766.356 323.813L765.72 323.807L764.683 323.786L763.547 323.78L762.914 323.774L761.927 323.754L760.055 323.74L759.071 323.72L758.083 323.715L756.308 323.684L755.394 323.675L752.683 323.625L751.585 323.609L750.844 323.601L750.01 323.58L748.946 323.564L746.335 323.516L745.437 323.494L744.494 323.475L743.458 323.449L742.624 323.436L741.891 323.414L739.081 323.344L738.148 323.315L736.373 323.271L735.438 323.238L734.505 323.215L732.728 323.152L731.064 323.102L730.222 323.064L728.352 322.999L727.421 322.956L726.475 322.923L725.646 322.886L724.713 322.848L724.068 322.819L723.034 322.762L722.105 322.725L721.172 322.673L720.225 322.635L719.691 322.606L718.758 322.55L717.824 322.498L715.215 322.341L714.281 322.28L713.438 322.229L711.006 322.058L708.439 321.857L708.348 321.85L707.595 321.789L705.918 321.646L705.187 321.58L702.672 321.34L700.245 321.084L698.73 320.909L697.143 320.715L694.679 320.393L694.132 320.316L693.302 320.191L692.368 320.055L691.713 319.956L691.056 319.851L689.506 319.594L688.879 319.484L687.408 319.215L686.614 319.059L685.745 318.894L685.225 318.79L684.617 318.661L683.181 318.348L682.697 318.234L680.451 317.689L680.038 317.579L679.194 317.35L678.556 317.177L677.323 316.822L676.093 316.445L675.57 316.275L674.926 316.062L674.354 315.866L673.717 315.642L673.177 315.447L672.69 315.265L672.064 315.021L671.985 314.99L671.348 314.741L670.852 314.54L670.491 314.389L669.954 314.152L669.167 313.802L668.752 313.615L667.695 313.108L667.283 312.899L666.651 312.573L666.065 312.263L665.681 312.055L664.557 311.416L664.165 311.181L663.639 310.859L663.128 310.536L662.573 310.177L662.102 309.865L661.537 309.477L661.013 309.111L660.658 308.854L660.115 308.446L660.011 308.367L659.405 307.908L658.907 307.52L658.519 307.209L658.046 306.812L657.389 306.252L656.842 305.777L656.349 305.334L655.74 304.772L655.186 304.251L654.655 303.735L654.057 303.14L653.519 302.592L652.902 301.942L652.243 301.238L651.677 300.618L651.1 299.966L650.445 299.208L649.8 298.447L649.203 297.723L648.544 296.904L647.914 296.106L647.268 295.26L646.573 294.333L645.848 293.344L645.152 292.381L644.497 291.448L643.801 290.433L643.075 289.351L642.368 288.278L641.675 287.196L640.903 285.966L640.844 285.872L640.109 284.692L639.413 283.541L638.629 282.214L637.864 280.908L637.113 279.585L636.332 278.191L635.545 276.752L634.719 275.225L633.94 273.76L633.144 272.227L632.325 270.629L631.505 269L630.691 267.359L629.875 265.682L629.047 263.953L628.209 262.176L627.356 260.341L627.317 260.258L626.512 258.516L624.815 254.719L623.955 252.761L623.082 250.756L622.229 248.771L620.474 244.612L619.642 242.595L619.599 242.491L617.821 238.143L616.968 236.019L615.163 231.46L613.369 226.867L611.584 222.219L611.547 222.122L609.77 217.441L609.737 217.353L607.937 212.556L606.112 207.658L606.072 207.549L605.167 205.095L605.123 204.976L605.138 204.935L605.196 204.778L608.817 195.055L608.854 194.956L609.719 192.661L609.757 192.561L611.563 187.813L612.453 185.484L612.496 185.371L613.351 183.154L613.389 183.056L614.239 180.869L614.288 180.745L615.176 178.483L615.179 178.475L615.183 178.466L616.068 176.207L616.904 174.115L616.956 173.986L617.841 171.795L619.611 167.433L620.425 165.477L620.483 165.339L622.233 161.182L623.049 159.283L623.112 159.139L623.944 157.224L624.78 155.325L624.841 155.187L625.671 153.325L626.492 151.505L627.318 149.718L628.205 147.808L628.254 147.703L629.033 146.041L629.822 144.407L629.866 144.317L630.682 142.639L631.479 141.037L631.54 140.914L632.338 139.324L633.129 137.777L633.93 136.244L633.99 136.129L634.776 134.635L635.539 133.22L636.292 131.848L637.053 130.497L637.124 130.371L637.867 129.064L638.621 127.774L639.397 126.463L640.168 125.192L640.904 123.993L641.591 122.906L641.686 122.757L642.318 121.769L643.075 120.634L643.812 119.521L644.441 118.613L645.208 117.521L645.947 116.486L646.565 115.639L647.226 114.763L647.824 113.981L648.535 113.092L649.298 112.129L649.81 111.507L650.389 110.826L650.977 110.15L651.735 109.304L651.743 109.294L652.281 108.694L652.837 108.108L653.496 107.41L654.112 106.788L654.123 106.777L654.715 106.177L655.208 105.702L655.864 105.078L656.174 104.79L657.368 103.745L657.901 103.295L658.04 103.177L658.561 102.742L658.907 102.463L659.38 102.095L659.529 101.98L660.057 101.576L660.501 101.246L661.068 100.839L661.641 100.433L662.008 100.181L662.46 99.8843L663.102 99.4706L663.69 99.0995L664.161 98.8094L664.605 98.5451L665.108 98.255L665.738 97.9011L666.199 97.6459L666.626 97.4211L667.14 97.1556L667.597 96.9289L668.855 96.3223L669.243 96.1452L669.765 95.913L670.333 95.6693L670.987 95.3936L671.386 95.2296L672.668 94.7341L673.258 94.5123L673.65 94.3692L674.14 94.2009L674.217 94.1745L674.969 93.9181L675.57 93.717L676.042 93.5654L676.779 93.3385L677.507 93.1129L677.932 92.9873L678.438 92.845L679.931 92.4402L680.505 92.29L680.685 92.2436L681.088 92.1409L681.838 91.9637L682.484 91.8049L683.049 91.6804L683.809 91.5089L685.198 91.2158L686.752 90.9036L687.933 90.6755L688.754 90.5402L689.694 90.3646L691.053 90.1397L691.625 90.0482L692.367 89.9396L693.931 89.7047L694.892 89.5794L695.816 89.4396L696.201 89.3895L697.696 89.2059L698.677 89.0973L699.606 88.9809L700.155 88.9203L701 88.8313L701.922 88.7339L702.659 88.6562L703.505 88.5757L704.441 88.4815L705.121 88.4167L706.702 88.278L707.586 88.2069L708.464 88.132L710.05 88.0089L712.9 87.8087L713.647 87.7488L714.373 87.7048L715.306 87.6396L715.747 87.613L716.892 87.5613L717.989 87.4839L720.334 87.3583L720.459 87.3518L722.098 87.2697L723.974 87.1851L724.708 87.1482L725.542 87.1189L726.678 87.0676L726.682 87.0674L727.511 87.0297L727.616 87.0251L728.934 86.9691L729.923 86.9492L731.258 86.8888L731.839 86.8655L733.721 86.8137L734.635 86.7768L737.348 86.7043L738.143 86.6762L739.078 86.6575L740.116 86.6211L740.651 86.6077L741.636 86.5928L743.509 86.5411L744.497 86.5263L745.48 86.4966L747.254 86.4655L748.171 86.4424L750.879 86.3972L751.98 86.375L752.665 86.3578L754.645 86.343L755.576 86.3148L757.246 86.3022L758.335 86.2804L759.07 86.2693L760 86.2599L760.94 86.2458L761.776 86.2375H761.778L762.706 86.2281H762.708L763.746 86.2177L764.682 86.2036L765.52 86.1952H765.521L766.553 86.1848L767.49 86.1707L769.159 86.154L770.097 86.1493L770.932 86.1409H771.869L773.103 86.1284L773.839 86.1174H774.675L775.812 86.106H775.814L776.544 86.0986H777.481L778.416 86.0892H779.461L780.59 86.0721L781.225 86.0657H782.165L783.204 86.0553L783.933 86.0517H784.971L787.045 86.0309H787.048L787.776 86.0235H790.488L791.42 86.0188H792.457L793.593 86.0074H793.596L794.33 86H796V6H793.926L792.793 6.01141L792.791 6.01144L792.058 6.01877H791.219L790.282 6.0235H787.372L786.242 6.03491H786.24L784.57 6.05167H783.731L782.6 6.05734L781.763 6.06573H780.824L779.584 6.07816L778.854 6.08923H778.018L777.08 6.0986H776.143L775.01 6.11002H775.009L774.274 6.1174H773.237L772.102 6.13446L771.465 6.14087H770.531L769.492 6.15131L768.56 6.15598L766.487 6.17679L765.555 6.1908L764.717 6.19922L764.716 6.19925L763.68 6.20966L762.747 6.22369L761.906 6.23212L761.903 6.23215L760.974 6.24149L760.973 6.24152L759.938 6.25189L758.999 6.26596L758.059 6.27542L756.929 6.29254L756.145 6.30826L754.063 6.32385L753.132 6.35208L751.361 6.36536L750.172 6.39517L749.474 6.40945L749.338 6.41199L746.496 6.45923L745.545 6.48312L743.572 6.51779L742.689 6.54443L741.804 6.55774L739.932 6.60941L739.047 6.62274L737.71 6.65625L736.877 6.68552L735.931 6.70441L734.868 6.74203L731.953 6.81989L731.007 6.85806L729.135 6.90964L727.845 6.9614L727.311 6.98553L726.427 7.00327L724.052 7.10455L723.071 7.14896L723.066 7.14917L722.334 7.18219L721.294 7.21875L720.161 7.27576L718.291 7.36011L716.252 7.46249L713.034 7.63446L712.269 7.68851L711.542 7.72131L710.11 7.8075L709.163 7.87375L708.029 7.94241L706.903 8.03281L704.138 8.22714L701.973 8.39523L701.073 8.47238L700.885 8.48795L699.996 8.55905L697.831 8.74905L696.64 8.86249L695.705 8.95654L694.677 9.05447L693.532 9.17514L691.574 9.38156L690.245 9.52826L689.302 9.64639L688.416 9.74445L686.166 10.0209L684.67 10.2153L683.733 10.3572L682.82 10.4762L680.707 10.7939L680.559 10.8159L679.514 10.9685L678.206 11.1777L675.819 11.5727L674.898 11.7447L673.839 11.9193L671.277 12.4139L669.088 12.8536L667.963 13.0907L667.95 13.0933L666.737 13.3496L665.717 13.5804L665.534 13.621L664.317 13.8892L663.091 14.1903L661.972 14.455L660.592 14.8079L659.385 15.1228L658.267 15.4252L658.25 15.4299L657.135 15.7328L655.77 16.1164L654.321 16.5448L653.205 16.8909L652.047 17.2472L650.644 17.6974L649.362 18.1268L648.284 18.4944L646.952 18.9517L645.466 19.4938L644.18 19.9773L641.723 20.9276L640.249 21.534L639.032 22.0465L637.737 22.6021L636.38 23.2055L634.895 23.8833L632.414 25.0796L630.996 25.7832L629.636 26.4857L628.192 27.2463L626.785 28.025L625.541 28.7235L624.173 29.5119L622.737 30.366L621.348 31.2214L620.061 32.0345L618.824 32.8321L617.404 33.7649L615.909 34.7915L614.609 35.7102L613.297 36.6549L611.868 37.7149L610.61 38.6805L609.279 39.7114L607.751 40.9451L606.468 42.019L605.204 43.088L602.652 45.3209L601.096 46.7609L599.875 47.924L598.499 49.2495L595.977 51.8018L594.795 53.0519L594.73 53.1211L593.446 54.4727L592.126 55.9482L591.009 57.196L589.724 58.6715L588.429 60.1972L587.063 61.8569L585.964 63.2441L584.804 64.6923L583.52 66.3732L582.31 67.9751L581.068 69.6808L579.927 71.2771L578.82 72.8534L577.576 74.65L576.486 76.2953L576.42 76.395L575.33 78.0283L574.136 79.8959L573.011 81.6742L571.868 83.5355L570.765 85.3561L569.666 87.2123L568.555 89.1143L567.46 91.0406L566.383 92.9525L565.264 94.9893L564.16 97.039L563.103 99.0481L562.5 100.202L561.897 99.0481L560.84 97.039L559.736 94.9893L558.617 92.9525L557.54 91.0406L556.445 89.1143L555.334 87.2123L554.235 85.3561L553.132 83.5355L551.989 81.6742L550.864 79.8959L549.67 78.0283L548.58 76.395L548.514 76.2953L547.424 74.65L546.18 72.8534L545.073 71.2771L543.932 69.6808L542.69 67.9751L541.48 66.3732L540.196 64.6923L539.036 63.2441L537.937 61.8569L536.571 60.1972L535.276 58.6715L533.991 57.196L532.874 55.9482L531.554 54.4727L530.27 53.1211L530.205 53.0519L529.023 51.8018L526.501 49.2495L525.125 47.924L523.904 46.7609L522.348 45.3209L519.796 43.088L518.532 42.019L517.249 40.9451L515.721 39.7114L514.39 38.6805L513.132 37.7149L511.703 36.6549L510.391 35.7102L509.091 34.7915L507.596 33.7649L506.176 32.8321L504.939 32.0345L503.652 31.2214L502.263 30.366L500.827 29.5119L499.459 28.7235L498.215 28.025L496.808 27.2463L495.364 26.4857L494.004 25.7832L492.586 25.0796L490.105 23.8833L488.62 23.2055L487.263 22.6021L485.968 22.0465L484.751 21.534L483.277 20.9276L480.82 19.9773L479.534 19.4938L478.048 18.9517L476.716 18.4944L475.638 18.1268L474.356 17.6974L472.953 17.2472L471.795 16.8909L470.679 16.5448L469.23 16.1164L467.865 15.7328L466.75 15.4299L466.733 15.4252L465.615 15.1228L464.408 14.8079L463.028 14.455L461.909 14.1903L460.683 13.8892L459.466 13.621L459.283 13.5804L458.263 13.3496L457.05 13.0933L457.037 13.0907L455.912 12.8536L453.723 12.4139L451.161 11.9193L450.102 11.7447L449.181 11.5727L446.794 11.1777L445.486 10.9685L444.441 10.8159L444.293 10.7939L442.18 10.4762L441.267 10.3572L440.33 10.2153L438.834 10.0209L436.584 9.74445L435.698 9.64639L434.755 9.52826L433.426 9.38156L431.468 9.17514L430.323 9.05447L429.295 8.95654L428.36 8.86249L427.169 8.74905L425.004 8.55905L424.115 8.48795L423.927 8.47238L423.027 8.39523L420.862 8.22714L418.097 8.03281L416.971 7.94241L415.837 7.87375L414.89 7.8075L413.458 7.72131L412.731 7.68851L411.966 7.63446L408.748 7.46249L406.709 7.36011L404.839 7.27576L403.706 7.21875L402.666 7.18219L401.934 7.14917L401.929 7.14896L400.948 7.10455L398.573 7.00327L397.689 6.98553L397.155 6.9614L395.865 6.90964L393.993 6.85806L393.047 6.81989L390.132 6.74203L389.069 6.70441L388.123 6.68552L387.29 6.65625L385.953 6.62274L385.068 6.60941L383.196 6.55774L382.311 6.54443L381.428 6.51779L379.455 6.48312L378.504 6.45923L375.662 6.41199L375.526 6.40945L374.828 6.39517L373.639 6.36536L371.868 6.35208L370.937 6.32385L368.855 6.30826L368.071 6.29254L366.941 6.27542L366.001 6.26596L365.062 6.25189L364.027 6.24152L364.026 6.24149L363.097 6.23215L363.094 6.23212L362.253 6.22369L361.32 6.20966L360.284 6.19925L360.283 6.19922L359.445 6.1908L358.513 6.17679L356.44 6.15598L355.508 6.15131L354.469 6.14087H353.535L352.898 6.13446L351.763 6.1174H350.726L349.991 6.11002H349.99L348.857 6.0986H347.92L346.982 6.08923H346.146L345.416 6.07816L344.176 6.06573H343.237L342.4 6.05734L341.269 6.05167H340.43L338.76 6.03491H338.758L337.628 6.0235H334.718L333.781 6.01877H332.942L332.209 6.01144L332.207 6.01141L331.074 6H329V86H330.67L331.404 86.0074H331.407L332.543 86.0188H333.58L334.512 86.0235H337.224L337.952 86.0309H337.955L340.029 86.0517H341.067L341.796 86.0553L342.835 86.0657H343.775L344.41 86.0721L345.539 86.0892H346.584L347.519 86.0986H348.456L349.186 86.106H349.188L350.325 86.1174H351.161L351.897 86.1284L353.131 86.1409H354.068L354.903 86.1493L355.841 86.154L357.51 86.1707L358.447 86.1848L359.479 86.1952H359.48L360.318 86.2036L361.254 86.2177L362.292 86.2281H362.294L363.222 86.2375H363.224L364.06 86.2458L365 86.2599L365.93 86.2693L366.665 86.2804L367.754 86.3022L369.424 86.3148L370.355 86.343L372.335 86.3578L373.02 86.375L374.121 86.3972L376.829 86.4424L377.746 86.4655L379.52 86.4966L380.503 86.5263L381.491 86.5411L383.364 86.5928L384.349 86.6077L384.884 86.6211L385.922 86.6575L386.857 86.6762L387.652 86.7043L390.365 86.7768L391.279 86.8137L393.161 86.8655L393.742 86.8888L395.077 86.9492L396.066 86.9691L397.384 87.0251L397.489 87.0297L398.318 87.0674L398.322 87.0676L399.458 87.1189L400.292 87.1482L401.026 87.1851L402.902 87.2697L404.541 87.3518L404.666 87.3583L407.011 87.4839L408.108 87.5613L409.253 87.613L409.694 87.6396L410.627 87.7048L411.353 87.7488L412.1 87.8087L414.95 88.0089L416.536 88.132L417.414 88.2069L418.298 88.278L419.879 88.4167L420.559 88.4815L421.495 88.5757L422.341 88.6562L423.078 88.7339L424 88.8313L424.845 88.9203L425.394 88.9809L426.323 89.0973L427.304 89.2059L428.799 89.3895L429.184 89.4396L430.108 89.5794L431.069 89.7047L432.633 89.9396L433.375 90.0482L433.947 90.1397L435.306 90.3646L436.246 90.5402L437.067 90.6755L438.248 90.9036L439.802 91.2158L441.191 91.5089L441.951 91.6804L442.516 91.8049L443.162 91.9637L443.912 92.1409L444.315 92.2436L444.495 92.29L445.069 92.4402L446.562 92.845L447.068 92.9873L447.493 93.1129L448.221 93.3385L448.958 93.5654L449.43 93.717L450.031 93.9181L450.783 94.1745L450.86 94.2009L451.35 94.3692L451.742 94.5123L452.332 94.7341L453.614 95.2296L454.013 95.3936L454.667 95.6693L455.235 95.913L455.757 96.1452L456.145 96.3223L457.403 96.9289L457.86 97.1556L458.374 97.4211L458.801 97.6459L459.262 97.9011L459.892 98.255L460.395 98.5451L460.839 98.8094L461.31 99.0995L461.898 99.4706L462.54 99.8843L462.992 100.181L463.359 100.433L463.932 100.839L464.499 101.246L464.943 101.576L465.471 101.98L465.62 102.095L466.093 102.463L466.439 102.742L466.96 103.177L467.099 103.295L467.632 103.745L468.826 104.79L469.136 105.078L469.792 105.702L470.285 106.177L470.877 106.777L470.888 106.788L471.504 107.41L472.163 108.108L472.719 108.694L473.257 109.294L473.265 109.304L474.023 110.15L474.611 110.826L475.19 111.507L475.702 112.129L476.465 113.092L477.176 113.981L477.774 114.763L478.435 115.639L479.053 116.486L479.792 117.521L480.559 118.613L481.188 119.521L481.925 120.634L482.682 121.769L483.314 122.757L483.409 122.906L484.096 123.993L484.832 125.192L485.603 126.463L486.379 127.774L487.133 129.064L487.876 130.371L487.947 130.497L488.708 131.848L489.461 133.22L490.224 134.635L491.01 136.129L491.07 136.244L491.871 137.777L492.662 139.324L493.46 140.914L493.521 141.037L494.318 142.639L495.134 144.317L495.178 144.407L495.967 146.041L496.746 147.703L496.795 147.808L497.682 149.718L498.508 151.505L499.329 153.325L500.159 155.187L500.22 155.325L501.056 157.224L501.888 159.139L501.951 159.283L502.767 161.182L504.517 165.339L504.575 165.477L505.389 167.433L507.159 171.795L508.044 173.986L508.096 174.115L508.932 176.207L509.817 178.466L509.821 178.475L509.824 178.483L510.712 180.745L510.761 180.869L511.611 183.056L511.649 183.154L512.504 185.371L512.547 185.484L513.437 187.813L515.243 192.561L515.281 192.661L516.146 194.956L516.183 195.055L519.804 204.778L519.862 204.935L519.877 204.975L519.833 205.095L518.928 207.549L518.888 207.658L517.063 212.556L515.263 217.353L515.23 217.441L513.453 222.122L513.416 222.219L511.631 226.867L509.837 231.46L508.032 236.019L507.179 238.143L505.401 242.491L505.358 242.595L504.526 244.612L502.771 248.771L501.918 250.756L501.045 252.761L500.185 254.719L498.488 258.516L497.683 260.258L497.644 260.341L496.791 262.176L495.953 263.953L495.125 265.682L494.309 267.359L493.495 269L492.675 270.629L491.856 272.227L491.06 273.76L490.281 275.225L489.455 276.752L488.668 278.191L487.887 279.585L487.136 280.908L486.371 282.214L485.587 283.541L484.891 284.692L484.156 285.872L484.097 285.966L483.325 287.196L482.632 288.278L481.925 289.351L481.199 290.433L480.503 291.448L479.848 292.381L479.152 293.344L478.427 294.333L477.732 295.26L477.086 296.106L476.456 296.904L475.797 297.723L475.2 298.447L474.554 299.208L473.9 299.966L473.323 300.618L472.757 301.238L472.098 301.942L471.481 302.592L470.943 303.14L470.345 303.735L469.814 304.251L469.26 304.772L468.651 305.334L468.158 305.777L467.611 306.252L466.954 306.812L466.481 307.209L466.093 307.52L465.595 307.908L464.989 308.367L464.885 308.446L464.342 308.854L463.987 309.111L463.463 309.477L462.898 309.865L462.427 310.177L461.872 310.536L461.361 310.859L460.835 311.181L460.443 311.416L459.319 312.055L458.935 312.263L458.349 312.573L457.717 312.899L457.305 313.108L456.248 313.615L455.833 313.802L455.046 314.152L454.509 314.389L454.148 314.54L453.652 314.741L453.015 314.99L452.936 315.021L452.31 315.265L451.823 315.447L451.283 315.642L450.646 315.866L450.074 316.062L449.43 316.275L448.907 316.445L447.677 316.822L446.444 317.177L445.806 317.35L444.962 317.579L444.549 317.689L442.303 318.234L441.819 318.348L440.383 318.661L439.775 318.79L439.255 318.894L438.386 319.059L437.592 319.215L436.121 319.484L435.494 319.594L433.944 319.851L433.287 319.956L432.632 320.055L431.698 320.191L430.868 320.316L430.321 320.393L427.857 320.715L426.27 320.909L424.755 321.084L422.328 321.34L419.813 321.58L419.082 321.646L417.405 321.789L416.652 321.85L416.561 321.857L413.994 322.058L411.562 322.229L410.719 322.28L409.785 322.341L407.176 322.498L406.242 322.55L405.309 322.606L404.775 322.635L403.828 322.673L402.895 322.725L401.966 322.762L400.932 322.819L400.287 322.848L399.354 322.886L398.525 322.923L397.579 322.956L396.648 322.999L394.778 323.064L393.936 323.102L392.272 323.152L390.495 323.215L389.562 323.238L388.627 323.271L386.852 323.315L385.919 323.344L383.109 323.414L382.376 323.436L381.542 323.449L380.506 323.475L379.563 323.494L378.665 323.516L376.054 323.564L374.99 323.58L374.156 323.601L373.415 323.609L372.317 323.625L369.606 323.675L368.692 323.684L366.917 323.715L365.929 323.72L364.945 323.74L363.073 323.754L362.086 323.774L361.453 323.78L360.317 323.786L359.28 323.807L358.644 323.813L357.711 323.818L354.898 323.846L353.967 323.851L351.093 323.88L348.483 323.901H347.552L344.739 323.925H343.775L341.899 323.944H341.062L339.928 323.949L339.093 323.958H338.156L337.22 323.967H336.286L335.349 323.977H334.513L333.574 323.981H332.543L331.606 323.991H330.669L329.735 324H329V404H330.138L331.071 403.991H332.007L332.944 403.981H333.774L334.713 403.977H335.75L336.687 403.967H337.62L338.557 403.958H339.493L340.531 403.947L341.263 403.944H342.3L344.176 403.925H345.073L347.886 403.901H348.816L351.831 403.876L354.57 403.849L355.5 403.844L358.312 403.816L359.246 403.811L360.483 403.799L361.32 403.782L362.056 403.778L363.291 403.766L364.176 403.748L366.051 403.734L366.934 403.716L367.819 403.712L369.797 403.677L370.744 403.668L373.657 403.614L374.421 403.603L375.559 403.591L376.598 403.565L377.394 403.553L380.409 403.498L381.371 403.473L382.308 403.455L383.146 403.434L384.185 403.418L385.319 403.384L388.128 403.313L389.062 403.285L391.033 403.236L391.971 403.203L392.905 403.179L394.874 403.11L396.95 403.048L397.982 403.001L399.864 402.935L400.793 402.893L401.727 402.86L402.771 402.813L403.699 402.776L404.933 402.72L405.773 402.674L406.716 402.636L407.644 402.584L408.576 402.547L409.915 402.473L410.855 402.417L411.789 402.365L414.799 402.184L415.732 402.123L416.762 402.061L419.943 401.837L422.956 401.601L424.018 401.515L426.094 401.339L427.223 401.236L430.334 400.94L433.52 400.604L434.665 400.472L435.745 400.347L437.905 400.082L441.054 399.671L442.38 399.484L443.423 399.327L444.356 399.191L445.574 399.008L446.79 398.813L447.847 398.639L448.981 398.45L450.226 398.231L452.508 397.814L453.575 397.604L454.585 397.412L455.938 397.141L457.19 396.876L459.507 396.371L460.897 396.044L464.263 395.227L465.723 394.839L467.982 394.226L470.495 393.502L473.005 392.733L474.356 392.292L475.591 391.885L476.879 391.443L478.115 391.009L479.448 390.528L480.841 390.006L482.036 389.541L483.233 389.073L484.615 388.513L486.116 387.885L487.451 387.295L488.544 386.809L490.002 386.152L492.685 384.864L494.146 384.125L495.388 383.483L496.668 382.807L498.157 382L500.78 380.508L502.255 379.624L503.602 378.801L504.964 377.94L506.282 377.088L507.678 376.16L508.985 375.262L510.335 374.321L511.86 373.217L513.125 372.265L514.34 371.346L515.722 370.268L517.207 369.076L518.594 367.914L519.81 366.877L521.143 365.718L522.511 364.49L523.775 363.323L525.1 362.078L526.442 360.772L527.706 359.516L529.047 358.149L530.303 356.826L531.517 355.53L532.818 354.103L534.114 352.64L535.332 351.229L536.56 349.783L537.83 348.243L539.044 346.733L540.287 345.156L541.515 343.549L542.686 341.988L543.834 340.422L545.011 338.793L546.235 337.049L547.401 335.349L548.547 333.641L549.72 331.86L550.887 330.039L551.959 328.329L553.074 326.541L554.252 324.592L555.327 322.774L556.442 320.868L557.564 318.894L558.656 316.944L559.73 314.982L560.783 313.034L561.877 310.978L562.5 309.778L563.123 310.978L564.217 313.034L565.27 314.982L566.344 316.944L567.436 318.894L568.558 320.868L569.673 322.774L570.748 324.592L571.926 326.541L573.041 328.329L574.113 330.039L575.28 331.86L576.453 333.641L577.599 335.349L578.765 337.049L579.989 338.793L581.166 340.422L582.314 341.988L583.485 343.549L584.713 345.156L585.956 346.733L587.17 348.243L588.44 349.783L589.668 351.229L590.886 352.64L592.182 354.103L593.483 355.53L594.697 356.826L595.953 358.149L597.294 359.516L598.558 360.772L599.9 362.078L601.225 363.323L602.489 364.49L603.857 365.718L605.19 366.877L606.406 367.914L607.793 369.076L609.278 370.268L610.66 371.346L611.875 372.265L613.14 373.217L614.665 374.321L616.015 375.262L617.322 376.16L618.718 377.088L620.036 377.94L621.398 378.801L622.745 379.624L624.22 380.508L626.843 382L628.332 382.807L629.612 383.483L630.854 384.125L632.315 384.864L634.998 386.152L636.456 386.809L637.549 387.295L638.884 387.885L640.385 388.513L641.767 389.073L642.964 389.541L644.159 390.006L645.552 390.528L646.885 391.009L648.121 391.443L649.409 391.885L650.644 392.292L651.995 392.733L654.505 393.502L657.018 394.226L659.277 394.839L660.737 395.227L664.103 396.044L665.493 396.371L667.81 396.876L669.062 397.141L670.415 397.412L671.425 397.604L672.492 397.814L674.774 398.231L676.019 398.45L677.152 398.639L678.21 398.813L679.426 399.008L680.643 399.191L681.577 399.327L682.62 399.484L683.946 399.671L687.095 400.082L689.255 400.347L690.335 400.472L691.48 400.604L694.666 400.94L697.777 401.236L698.906 401.339L700.982 401.515L702.044 401.601L705.057 401.837L708.238 402.061L709.268 402.123L710.202 402.184L713.211 402.365L714.145 402.417L715.085 402.473L716.424 402.547L717.356 402.584L718.284 402.636L719.227 402.674L720.067 402.72L721.301 402.776L722.229 402.813L723.273 402.86L724.207 402.893L725.136 402.935L727.018 403.001L728.05 403.048L730.126 403.11L732.095 403.179L733.029 403.203L733.967 403.236L735.938 403.285L736.872 403.313L739.681 403.384L740.815 403.418L741.854 403.434L742.692 403.455L743.629 403.473L744.591 403.498L747.606 403.553L748.402 403.565L749.441 403.591L750.579 403.603L751.343 403.614L754.256 403.668L755.203 403.677L757.181 403.712L758.066 403.716L758.949 403.734L760.824 403.748L761.709 403.766L762.944 403.778L763.68 403.782L764.517 403.799L765.754 403.811L766.688 403.816L769.5 403.844L770.43 403.849L773.169 403.876L776.184 403.901H777.114L779.927 403.925H780.824L782.7 403.944H783.737L784.469 403.947L785.507 403.958H786.443L787.38 403.967H788.313L789.25 403.977H790.287L791.226 403.981H792.056L792.993 403.991H793.929L794.862 404H796V324Z" fill="#161616"/>
</g>
<defs>
<clipPath id="clip0_1467_2295">
<rect width="369" height="399" fill="white" transform="translate(378 5)"/>
</clipPath>
</defs>
</svg>
